<?xml version="1.0" encoding="utf-8"?>
<!-- Generator: Adobe Illustrator 22.0.1, SVG Export Plug-In . SVG Version: 6.00 Build 0)  -->
<svg version="1.1" id="Layer_1" xmlns="http://www.w3.org/2000/svg" xmlns:xlink="http://www.w3.org/1999/xlink" x="0px" y="0px"
	 viewBox="0 0 49.4 65" style="enable-background:new 0 0 49.4 65;" xml:space="preserve">
<style type="text/css">
	.st0{fill:#FFFFFF;}
	.st1{fill:#CE1919;}
</style>
<g>
	<path class="st0" d="M33.4,32.9h-5.6v20.5h-8.3V32.9h-3.9v-7.2h3.9V21c0-3.4,1.5-8.6,8.3-8.6h6.1v7h-4.4c-0.7,0-1.8,0.4-1.8,2v4.3
		H34L33.4,32.9z"/>
</g>
<g>
	<path class="st1" d="M34.9,65H14.5C6.5,65,0,58.5,0,50.5v-36C0,6.5,6.5,0,14.5,0h20.4c8,0,14.5,6.5,14.5,14.5v36
		C49.4,58.5,42.9,65,34.9,65z M14.5,5C9.3,5,5,9.3,5,14.5v36c0,5.2,4.3,9.5,9.5,9.5h20.4c5.2,0,9.5-4.3,9.5-9.5v-36
		c0-5.2-4.3-9.5-9.5-9.5H14.5z"/>
</g>
</svg>
