<?xml version="1.0" encoding="utf-8"?>
<!-- Generator: Adobe Illustrator 22.0.1, SVG Export Plug-In . SVG Version: 6.00 Build 0)  -->
<svg version="1.1" id="Layer_1" xmlns="http://www.w3.org/2000/svg" xmlns:xlink="http://www.w3.org/1999/xlink" x="0px" y="0px"
	 viewBox="0 0 51.1 66.5" style="enable-background:new 0 0 51.1 66.5;" xml:space="preserve">
<style type="text/css">
	.st0{fill:#271A15;}
	.st1{fill:#FFFFFF;}
</style>
<path class="st0" d="M36.6,0H14.5C6.5,0,0,6.5,0,14.5v25.9c0,8,6.5,14.5,14.5,14.5h2.4v-5h-2.4c-5.2,0-9.5-4.3-9.5-9.5V14.5
	C5,9.3,9.3,5,14.5,5h22.1c5.2,0,9.5,4.3,9.5,9.5v25.9c0,5.2-4.3,9.5-9.5,9.5h-4.4v5h4.4c8,0,14.5-6.5,14.5-14.5V14.5
	C51.1,6.5,44.6,0,36.6,0z"/>
<path class="st1" d="M36.6,35.6h-6.8v24.3H19.6V35.6h-4.8V27h4.8v-5.6c0-4,1.9-10.2,10.2-10.2l7.5,0v8.3h-5.4
	c-0.9,0-2.1,0.4-2.1,2.3V27h7.7L36.6,35.6z M36.6,35.6"/>
</svg>
