<?xml version="1.0" encoding="utf-8"?>
<!-- Generator: Adobe Illustrator 22.0.1, SVG Export Plug-In . SVG Version: 6.00 Build 0)  -->
<svg version="1.1" id="Layer_1" xmlns:sketch="http://www.bohemiancoding.com/sketch/ns"
	 xmlns="http://www.w3.org/2000/svg" xmlns:xlink="http://www.w3.org/1999/xlink" x="0px" y="0px" viewBox="0 0 66.5 58.7"
	 style="enable-background:new 0 0 66.5 58.7;" xml:space="preserve">
<style type="text/css">
	.st0{fill:#B71111;}
	.st1{fill:#000106;}
</style>
<title>Fill 1</title>
<desc>Created with Sketch.</desc>
<g>
	<path id="Fill-4" sketch:type="MSShapeGroup" class="st0" d="M31.5,21.9c3.4,0,4.5,0.7,4.5,0.7l-0.3,2.2L33.1,25
		c0,0-1.1-0.9-3.2-0.9c-2.2,0-3,0.9-3,0.9c-0.8,1.2-1.3,3.8-1.3,6.3c0,1.7,0.2,4.8,2,4.8c2.5-2.2,3.9-5.9,4.8-9.3l3.4,0.4
		c-0.1,2.3-0.1,4.1-0.1,7.5l0.3,3.5l-2,0.3h-1.6c0-4.8,0.4-7.7,0.4-9.8c-0.9,4.4-2.9,8.4-5.3,10.1c-1.9,0-3.5-0.8-4.3-1.8
		c-0.4-1-0.7-2.5-0.7-4.4C22.5,26.1,25.1,21.9,31.5,21.9"/>
	<path id="Fill-5" sketch:type="MSShapeGroup" class="st0" d="M41.6,31.6c2.7-0.9,4.8-2.4,5.8-3.8c0.2-0.4,0.3-1,0.3-1.5
		c0-0.7-0.1-2-2.5-2c-0.7,0-1.8,0.2-2.5,0.7c-0.7,1.2-1.1,3.2-1.1,5.4C41.6,30.8,41.6,31.2,41.6,31.6L41.6,31.6z M46.6,21.9
		c2.9,0,3.8,1.3,3.8,1.3s0.3,1,0.3,2.3c0,5.1-5,6.6-8.2,7.2l-0.8,0.2c0.3,2.3,1.2,3.8,3.7,3.8c1,0,2.3-0.5,4-1.1l0.7,1.5
		c-1.2,1.1-2.9,1.8-5.2,1.8c-2.8,0-4.7-1-5.4-1.8c-0.6-1.1-1-3.1-1-5.5C38.5,25.9,41.5,21.9,46.6,21.9L46.6,21.9z"/>
	<path id="Fill-6" sketch:type="MSShapeGroup" class="st0" d="M53.8,22.7h2c0,0,1.7,9.4,3.2,13.4h0.3c1.1-0.7,2-1.8,3.1-4.2
		s2.1-6,2.1-8.5c-1.1-1.4-4.4-3.1-4.4-3.1l1-2.4h2c1.2,0.8,3.4,2.2,3.4,6.3c0,5.2-2.1,11.6-6.3,14.6c-1.9,0-3.5-0.8-4.3-1.8l-2.4-10
		l-1.2-3.9L53.8,22.7"/>
	<path id="Fill-7" sketch:type="MSShapeGroup" class="st0" d="M19.4,16c0,0-2-2.4-7.2-2.4c-1.6,0-3,0.2-4.2,0.5
		c-4.5,1-7.3,3.2-7.9,4.1l-0.1,2l2.1,1c0,0,2.4-3.2,3.9-4.2l0,0c1-0.3,2.5-0.7,2.5-0.7c0.8-0.2,1.9-0.4,3.3-0.4
		c4.8,0,5.8,3.1,5.8,10.3c0,2.8-0.5,6.7-1.3,8.4c-0.7,0.8-2.5,1.6-4.8,1.6c-1,0-2.1-0.1-2.9-0.4l-0.2-1l0.2-15.9l-3.1,0.6L5.3,38.4
		c0,0,2.8,0.5,5.2,0.5c7.6,0,10.2-3.8,10.2-14.4C20.7,20.9,20.1,17.4,19.4,16"/>
	<path id="Fill-8" sketch:type="MSShapeGroup" class="st1" d="M20.7,6c0,0.2-0.1,0.4-0.2,0.6C20.4,6.7,20.3,6.9,20,7
		c-0.2,0.1-0.4,0.2-0.6,0.2s-0.4,0-0.6-0.1s-0.4-0.2-0.5-0.3c-0.2-0.1-0.3-0.3-0.4-0.5s-0.2-0.4-0.2-0.6c-0.1-0.2-0.1-0.4,0-0.6
		c0-0.2,0.1-0.4,0.2-0.5c0.1-0.2,0.3-0.3,0.5-0.4S18.8,4,19,4s0.4,0,0.7,0.1l-0.1,0.5c-0.2-0.1-0.4-0.1-0.5-0.1s-0.3,0.1-0.4,0.1
		c-0.1,0.1-0.2,0.2-0.3,0.3c-0.1,0.1-0.1,0.2-0.1,0.4c0,0.1,0,0.3,0,0.4s0.1,0.3,0.2,0.4s0.2,0.2,0.3,0.3c0.1,0.1,0.2,0.2,0.4,0.2
		c0.1,0,0.3,0.1,0.4,0.1s0.3-0.1,0.4-0.1c0.1-0.1,0.2-0.1,0.3-0.2c0.1-0.1,0.1-0.2,0.2-0.3l-0.4-0.6l-0.7,0.4l-0.3-0.4L20,4.8
		L20.7,6L20.7,6"/>
	<path id="Fill-9" sketch:type="MSShapeGroup" class="st1" d="M22.9,5.6c-0.1,0-0.3,0.1-0.4,0.1s-0.3,0-0.4-0.1
		c-0.1,0-0.2-0.1-0.3-0.2c-0.1-0.1-0.2-0.2-0.3-0.3l-0.8-1.9L21.1,3l0.8,1.9c0,0,0.1,0,0.1,0.1c0.1,0.1,0.1,0.1,0.2,0.1s0.2,0,0.3,0
		c0.1,0,0.2,0,0.3-0.1l0,0l0,0h0.1l0,0l0,0c0.1,0,0.2-0.1,0.2-0.2c0.1-0.1,0.1-0.1,0.2-0.2c0-0.1,0.1-0.2,0.1-0.2
		c0-0.1,0-0.2-0.1-0.3l-0.8-1.9L23,2.1L23.8,4c0.1,0.1,0.1,0.3,0.1,0.4s0,0.3-0.1,0.4c0,0.1-0.1,0.2-0.2,0.3
		c-0.1,0.1-0.2,0.2-0.3,0.3l-0.1,0.1h-0.1C23,5.5,22.9,5.6,22.9,5.6"/>
	<path id="Fill-10" sketch:type="MSShapeGroup" class="st1" d="M25.2,4.6l-1-3l0.5-0.2l1,3L25.2,4.6"/>
	<path id="Fill-11" sketch:type="MSShapeGroup" class="st1" d="M27.2,1.3l0.6,2.6L27.4,4l-0.6-2.6L26,1.6l-0.1-0.5l1.9-0.5l0.1,0.5
		L27.2,1.3"/>
	<path id="Fill-12" sketch:type="MSShapeGroup" class="st1" d="M30,2.1L30.6,2c0-0.1-0.1-0.2-0.1-0.2c0-0.1-0.1-0.1-0.1-0.2
		s-0.1-0.1-0.1-0.2s-0.1-0.1-0.1-0.2L30,2.1L30,2.1z M30.8,2.4l-1,0.1l-0.2,0.9l-0.5,0.1l0.7-3.3l0.5-0.1l1.5,3l-0.5,0.1L30.8,2.4
		L30.8,2.4z"/>
	<path id="Fill-13" sketch:type="MSShapeGroup" class="st1" d="M33.3,1.4H34c0.1,0,0.1,0,0.2,0c0.1,0,0.1-0.1,0.1-0.1l0.1-0.1
		c0-0.1,0-0.1,0-0.2s0-0.2-0.1-0.3S34.1,0.6,34,0.6h-0.7V1.4L33.3,1.4z M33.9,1.9h-0.6v1.3h-0.5l0-3.2H34c0.1,0,0.3,0,0.4,0.1
		c0.1,0,0.2,0.1,0.3,0.2s0.2,0.2,0.2,0.3C35,0.7,35,0.8,35,1s0,0.4-0.1,0.5c-0.1,0.2-0.2,0.3-0.4,0.3l0.7,1.3h-0.6L33.9,1.9
		L33.9,1.9z"/>
	<path id="Fill-14" sketch:type="MSShapeGroup" class="st1" d="M40.4,3.8l0.4-2.1L39.6,3L39,1.4l-0.4,2.1l-0.5-0.1l0.6-3.1L39,0.4
		l0.7,1.8L41,0.8l0.4,0.1L40.8,4L40.4,3.8"/>
	<path id="Fill-15" sketch:type="MSShapeGroup" class="st1" d="M43.2,3.2l0.6,0.2c0-0.1,0-0.2,0-0.2c0-0.1,0-0.1,0-0.2
		c0-0.1,0-0.1,0-0.2c0-0.1,0-0.2,0-0.3L43.2,3.2L43.2,3.2z M43.9,3.9L43,3.6l-0.6,0.8l-0.5-0.2L44,1.6l0.4,0.1l0.1,3.4L44,4.9
		L43.9,3.9L43.9,3.9z"/>
	<path id="Fill-16" sketch:type="MSShapeGroup" class="st1" d="M46.5,4.1l0.6,0.3c0.1,0,0.1,0,0.2,0c0.1,0,0.1,0,0.2,0
		c0.1,0,0.1,0,0.2-0.1l0.1-0.1c0.1-0.1,0.1-0.2,0-0.3c0-0.1-0.1-0.2-0.2-0.3L47,3.3L46.5,4.1L46.5,4.1z M46.8,4.8l-0.5-0.2l-0.6,1.1
		l-0.4-0.2l1.4-2.8l1.1,0.5c0.1,0.1,0.2,0.1,0.3,0.2c0.1,0.1,0.1,0.2,0.2,0.3c0,0.1,0.1,0.2,0.1,0.4c0,0.1,0,0.2-0.1,0.4
		c-0.1,0.2-0.2,0.3-0.4,0.4S47.6,5,47.4,5v1.5l-0.5-0.2L46.8,4.8L46.8,4.8z"/>
	<path id="Fill-17" sketch:type="MSShapeGroup" class="st1" d="M48.2,7L50,4.3l0.4,0.3l-0.7,1.1l1.8-0.4L52,5.7l-2.1,0.4
		c0,0.2,0.1,0.4,0.1,0.5c0,0.2,0.1,0.4,0.1,0.6s0.1,0.4,0.1,0.6c0,0.2,0.1,0.4,0.1,0.5l-0.6-0.4L49.4,6l-0.8,1.2L48.2,7"/>
	<path id="Fill-18" sketch:type="MSShapeGroup" class="st1" d="M16.5,52.2l1.4-1.6l-1.7,0.5l0.3-1.7L15.1,51l-0.4-0.3l2.1-2.3
		l0.3,0.3l-0.3,1.9l1.9-0.5l0.3,0.2l-2.1,2.3L16.5,52.2"/>
	<path id="Fill-19" sketch:type="MSShapeGroup" class="st1" d="M19.6,52.7l0.5,0.4c0-0.1,0-0.2,0.1-0.2c0-0.1,0-0.1,0.1-0.2
		c0-0.1,0-0.1,0.1-0.2c0-0.1,0-0.2,0.1-0.3L19.6,52.7L19.6,52.7z M20,53.6L19.2,53l-0.8,0.6l-0.5-0.3l2.7-2l0.4,0.3l-0.8,3.3
		l-0.5-0.3L20,53.6L20,53.6z"/>
	<path id="Fill-20" sketch:type="MSShapeGroup" class="st1" d="M24,55c0.1-0.3,0.2-0.6,0.1-0.8c-0.1-0.3-0.3-0.4-0.6-0.6l-0.6-0.3
		l-0.9,2l0.6,0.3c0.2,0.1,0.3,0.1,0.4,0.1s0.3,0,0.4-0.1c0.1,0,0.2-0.1,0.3-0.2C23.9,55.2,24,55.1,24,55L24,55z M24.5,55.2
		c-0.1,0.2-0.2,0.4-0.3,0.5c-0.1,0.1-0.3,0.3-0.5,0.3c-0.2,0.1-0.4,0.1-0.6,0.1s-0.4-0.1-0.7-0.2l-1.1-0.5l1.3-2.9l1.1,0.5
		c0.2,0.1,0.4,0.2,0.6,0.4c0.1,0.2,0.2,0.3,0.3,0.5c0.1,0.2,0.1,0.4,0,0.6C24.6,54.8,24.6,55,24.5,55.2L24.5,55.2z"/>
	<path id="Fill-21" sketch:type="MSShapeGroup" class="st1" d="M25.1,57.1l0.9-3l1.9,0.6l-0.1,0.5l-1.4-0.4l-0.2,0.8l1.3,0.4
		l-0.1,0.5l-1.3-0.4L25.8,57l1.4,0.4l-0.1,0.5L25.1,57.1"/>
	<path id="Fill-22" sketch:type="MSShapeGroup" class="st1" d="M30.3,58.3l0.4-3.1l0.5,0.1l-0.4,3.1L30.3,58.3"/>
	<path id="Fill-23" sketch:type="MSShapeGroup" class="st1" d="M34.2,58.6l-1.6-2.3l-0.1,2.2H32l0.1-3.2h0.4l1.6,2.3l0.1-2.2h0.5
		l-0.1,3.2H34.2"/>
	<path id="Fill-24" sketch:type="MSShapeGroup" class="st1" d="M38.3,56.6l0.7-0.1c0.1,0,0.1,0,0.2-0.1l0.1-0.1c0,0,0.1-0.1,0.1-0.2
		c0-0.1,0-0.1,0-0.2c0-0.1-0.1-0.2-0.2-0.3c-0.1-0.1-0.2-0.1-0.3-0.1l-0.7,0.1L38.3,56.6L38.3,56.6z M38.9,57l-0.6,0.1l0.2,1.3
		L38,58.5l-0.6-3.1l1.2-0.2c0.1,0,0.3,0,0.4,0c0.1,0,0.2,0.1,0.3,0.1c0.1,0.1,0.2,0.2,0.3,0.3s0.1,0.2,0.1,0.3c0,0.2,0,0.4-0.1,0.5
		c-0.1,0.2-0.2,0.3-0.3,0.4l0.9,1.2l-0.5,0.1L38.9,57L38.9,57z"/>
	<path id="Fill-25" sketch:type="MSShapeGroup" class="st1" d="M42.7,57.4c-0.1,0-0.3,0-0.4,0c-0.1,0-0.3-0.1-0.4-0.1
		c-0.1-0.1-0.2-0.1-0.3-0.2c-0.1-0.1-0.2-0.2-0.2-0.4l-0.6-2l0.5-0.2l0.6,1.9c0,0.1,0.1,0.2,0.1,0.2c0.1,0.1,0.1,0.1,0.2,0.1
		c0.1,0,0.2,0,0.2,0c0.1,0,0.2,0,0.3,0l0,0l0,0h0.1l0,0l0,0c0.1,0,0.2-0.1,0.2-0.1c0.1-0.1,0.1-0.1,0.2-0.2c0-0.1,0.1-0.1,0.1-0.2
		c0-0.1,0-0.2,0-0.3L42.7,54l0.5-0.2l0.6,2c0,0.1,0.1,0.3,0,0.4c0,0.1-0.1,0.3-0.1,0.4c-0.1,0.1-0.1,0.2-0.2,0.3
		c-0.1,0.1-0.2,0.2-0.4,0.2L43,57.3h-0.1C42.8,57.3,42.8,57.4,42.7,57.4"/>
	<path id="Fill-26" sketch:type="MSShapeGroup" class="st1" d="M46,53.4c-0.1-0.1-0.2-0.1-0.3-0.1s-0.2,0-0.3,0.1
		c-0.2,0.1-0.3,0.2-0.3,0.3c-0.1,0.1-0.1,0.2,0,0.3c0,0.1,0.1,0.1,0.1,0.1c0.1,0,0.1,0,0.2,0c0.1,0,0.2,0,0.2,0c0.1,0,0.2,0,0.3,0
		l0,0c0.1,0,0.2,0,0.3,0s0.2,0,0.4,0c0.1,0,0.2,0.1,0.3,0.1c0.1,0.1,0.2,0.2,0.3,0.3s0.1,0.3,0.1,0.4c0,0.1,0,0.3-0.1,0.4
		c-0.1,0.1-0.1,0.2-0.2,0.3c-0.1,0.1-0.2,0.2-0.4,0.2C46.2,56,46,56,45.8,56s-0.5-0.1-0.7-0.2l0.2-0.5c0.2,0.1,0.3,0.1,0.5,0.1
		s0.3,0,0.4-0.1c0.1,0,0.2-0.1,0.2-0.1c0.1,0,0.1-0.1,0.1-0.2c0-0.1,0.1-0.1,0.1-0.2c0-0.1,0-0.1,0-0.2c0-0.1-0.1-0.1-0.1-0.1
		c-0.1,0-0.1-0.1-0.2-0.1c-0.1,0-0.2,0-0.3,0s-0.2,0-0.3,0h-0.1c-0.1,0-0.2,0-0.3,0s-0.2,0-0.3,0s-0.2-0.1-0.3-0.1
		c-0.1-0.1-0.2-0.2-0.2-0.3s-0.1-0.2-0.1-0.3s0-0.2,0-0.3s0.1-0.2,0.2-0.3c0.1-0.1,0.2-0.2,0.4-0.3c0.1,0,0.2-0.1,0.3-0.1
		s0.2,0,0.3,0s0.2,0,0.3,0s0.2,0.1,0.4,0.1l-0.2,0.5L46,53.4"/>
	<path id="Fill-27" sketch:type="MSShapeGroup" class="st1" d="M48.9,51.7c-0.1,0-0.2,0-0.4,0c-0.1,0-0.2,0.1-0.3,0.1
		c-0.1,0.1-0.2,0.2-0.3,0.3c0,0.1,0,0.2,0,0.3s0.1,0.1,0.1,0.1c0.1,0,0.1,0,0.2,0c0.1,0,0.2,0,0.2,0c0.1,0,0.2,0,0.2-0.1l0,0
		c0.1,0,0.2,0,0.3-0.1c0.1,0,0.2,0,0.4,0c0.1,0,0.2,0,0.4,0.1c0.1,0.1,0.2,0.1,0.3,0.3c0.1,0.1,0.1,0.3,0.1,0.4c0,0.1,0,0.3,0,0.4
		c0,0.1-0.1,0.2-0.2,0.3c-0.1,0.1-0.2,0.2-0.3,0.3c-0.2,0.1-0.4,0.2-0.6,0.2c-0.2,0-0.5,0-0.7-0.1l0.2-0.5c0.2,0.1,0.3,0.1,0.5,0.1
		s0.3-0.1,0.4-0.2c0.1-0.1,0.1-0.1,0.2-0.2c0.1-0.1,0.1-0.1,0.1-0.2c0-0.1,0-0.1,0-0.2c0-0.1,0-0.1,0-0.2c0-0.1-0.1-0.1-0.2-0.1
		c-0.1,0-0.1,0-0.2,0c-0.1,0-0.2,0-0.3,0s-0.2,0-0.3,0.1h-0.1c-0.1,0-0.2,0-0.3,0.1c-0.1,0-0.2,0-0.3,0s-0.2,0-0.3-0.1
		s-0.2-0.1-0.3-0.3c-0.1-0.1-0.1-0.2-0.1-0.3s0-0.2,0-0.3s0.1-0.2,0.2-0.3c0.1-0.1,0.2-0.2,0.4-0.3c0.1-0.1,0.2-0.1,0.3-0.1
		s0.2-0.1,0.3-0.1s0.2,0,0.3,0s0.2,0,0.4,0.1L48.9,51.7L48.9,51.7"/>
	<path id="Fill-28" sketch:type="MSShapeGroup" class="st1" d="M51.6,52.6l-2-2.5l0.4-0.3l2,2.5L51.6,52.6"/>
	<path id="Fill-29" sketch:type="MSShapeGroup" class="st1" d="M52.7,49.8l0.5-0.5c-0.1,0-0.2-0.1-0.2-0.1c-0.1,0-0.1-0.1-0.2-0.1
		c-0.1,0-0.1-0.1-0.2-0.1c-0.1,0-0.1-0.1-0.2-0.1L52.7,49.8L52.7,49.8z M53.6,49.5l-0.7,0.7l0.4,0.9L53,51.5l-1.4-3l0.3-0.3l3,1.4
		L54.5,50L53.6,49.5L53.6,49.5z"/>
</g>
</svg>
