<?xml version="1.0" encoding="utf-8"?>
<!-- Generator: Adobe Illustrator 22.0.0, SVG Export Plug-In . SVG Version: 6.00 Build 0)  -->
<svg version="1.1" id="Layer_1" xmlns="http://www.w3.org/2000/svg" xmlns:xlink="http://www.w3.org/1999/xlink" x="0px" y="0px"
	 viewBox="0 0 69.9 54.9" style="enable-background:new 0 0 69.9 54.9;" xml:space="preserve">
<style type="text/css">
	.st0{fill:#271A15;}
	.st1{fill:#FFFFFF;}
</style>
<path class="st0" d="M46.8,45.6h-2.3c-1.7,2.6-4.6,4.3-7.9,4.3H14.5c-5.2,0-9.5-4.3-9.5-9.5V14.5C5,9.3,9.3,5,14.5,5h22.1
	c2.4,0,4.5,0.9,6.2,2.3h3.5c1.3,0,2.4,0.3,3.2,0.7c-2.4-4.7-7.3-8-12.9-8H14.5C6.5,0,0,6.5,0,14.5v25.9c0,8,6.5,14.5,14.5,14.5h22.1
	c6.5,0,12-4.3,13.8-10.2C49.4,45.3,48.2,45.6,46.8,45.6z"/>
<path class="st1" d="M19.9,13.4c2.1,0,4.2,0,6.3,0c2.4,0,2.3,0.4,3,1.6c2.6,4.5,6.2,11.1,9,10.7c0-2.9,0-5.9,0-8.8
	c0-3.5-2.3-1.9-2.4-3.1c-0.1-0.6,1.1-1.7,3.2-1.7c2.4,0,4.9,0,7.3,0c1.9,0,2.1,1,2.1,2.1c0,3.9,0,7.6-0.1,11.6
	c3.7-0.3,6.5-5.9,8.7-10.2c1.3-2.4,1.5-2.1,3.3-2.1c2.3,0,4.7,0,7,0c1.6,0,1.9,0.6,0.9,2.2c-2.2,3.6-4.7,7.5-7,11.1
	c-0.8,1.2-1.2,1.4,0.1,3c2.7,3.2,5.5,5.9,8.1,9.1c0.6,0.7,0.4,1.8-1.3,1.8c-3,0-6,0-9,0c-1.2,0-1.7,0-3.1-1.6
	c-2.3-2.4-4.4-4.8-7.5-5.1c0,1.8,0,3.3,0,5c0,0.9-0.4,1.6-1.8,1.6c-2,0-3.9,0-5.9,0c-8.4,0-17.9-16.9-22.1-25.2
	C18,13.8,18.7,13.4,19.9,13.4z"/>
</svg>
