<?xml version="1.0" encoding="utf-8"?>
<!-- Generator: Adobe Illustrator 22.0.1, SVG Export Plug-In . SVG Version: 6.00 Build 0)  -->
<svg version="1.1" id="Layer_1" xmlns="http://www.w3.org/2000/svg" xmlns:xlink="http://www.w3.org/1999/xlink" x="0px" y="0px"
	 viewBox="0 0 67.4 65" style="enable-background:new 0 0 67.4 65;" xml:space="preserve">
<style type="text/css">
	.st0{fill:#FFFFFF;}
	.st1{fill:#CE1919;}
</style>
<path class="st0" d="M13.5,18.6c2.3,0,4.6,0,6.8,0c2.5,0,2.5,0.4,3.3,1.8c2.8,4.8,6.7,12,9.7,11.5c0-3.2,0-6.3,0-9.5
	c0-3.7-2.5-2.1-2.6-3.4c-0.1-0.7,1.2-1.8,3.5-1.8c2.6,0,5.3,0,7.9,0c2,0,2.2,1.1,2.2,2.3c0,4.3,0,8.2-0.1,12.5c4-0.4,7-6.4,9.4-11
	c1.4-2.6,1.6-2.3,3.6-2.3c2.5,0,5.1,0,7.6,0c1.7,0,2.1,0.7,1,2.4c-2.4,3.9-5,8.1-7.6,12c-0.8,1.3-1.3,1.5,0.2,3.2
	c2.9,3.4,5.9,6.3,8.7,9.8c0.6,0.8,0.4,1.9-1.4,1.9c-3.2,0-6.5,0-9.7,0c-1.3,0-1.8,0-3.3-1.7c-2.4-2.6-4.7-5.1-8.1-5.5
	c0,1.9,0,3.6,0,5.4c0,1-0.4,1.8-2,1.8c-2.1,0-4.2,0-6.4,0c-9.1,0-19.3-18.2-23.8-27.1C11.5,19,12.3,18.6,13.5,18.6z"/>
<path class="st1" d="M44.6,40.8c0,1.9,0,3.6,0,5.4c0,0.4-0.1,0.7-0.2,1v3.3C44.3,55.7,40,60,34.8,60H14.5C9.3,60,5,55.7,5,50.5v-36
	C5,9.3,9.3,5,14.5,5h20.4c5.2,0,9.5,4.3,9.5,9.5V32c1.9-0.3,3.5-1.8,5-3.8V14.5c0-8-6.5-14.5-14.5-14.5H14.5C6.5,0,0,6.5,0,14.5v36
	C0,58.5,6.5,65,14.5,65h20.3c7.9,0,14.5-6.5,14.6-14.5V43C48,41.9,46.5,41,44.6,40.8z"/>
</svg>
