<?xml version="1.0" encoding="utf-8"?>
<!-- Generator: Adobe Illustrator 22.0.1, SVG Export Plug-In . SVG Version: 6.00 Build 0)  -->
<svg version="1.1"
	 id="Layer_1" xmlns:cc="http://creativecommons.org/ns#" xmlns:dc="http://purl.org/dc/elements/1.1/" xmlns:inkscape="http://www.inkscape.org/namespaces/inkscape" xmlns:rdf="http://www.w3.org/1999/02/22-rdf-syntax-ns#" xmlns:sodipodi="http://sodipodi.sourceforge.net/DTD/sodipodi-0.dtd" xmlns:svg="http://www.w3.org/2000/svg"
	 xmlns="http://www.w3.org/2000/svg" xmlns:xlink="http://www.w3.org/1999/xlink" x="0px" y="0px" viewBox="0 0 42.5 25"
	 style="enable-background:new 0 0 42.5 25;" xml:space="preserve">
<style type="text/css">
	.st0{fill:#C7C7C7;}
</style>
<g transform="translate(0,-952.36218)">
	<g>
		<path class="st0" d="M0,964.9c0,0.5,0.2,0.9,0.5,1.3l10,10.6c0.6,0.6,2,0.9,2.7,0.2c0.7-0.7,0.6-2.1,0-2.7l-7-7.5h34.4
			c1,0,1.9-0.8,1.9-1.9c0-1-0.8-1.9-1.9-1.9H6.2l7-7.5c0.7-0.7,0.8-2,0-2.7c-0.8-0.7-2.1-0.5-2.7,0.2l-10,10.6
			C0.2,963.9,0,964.4,0,964.9L0,964.9z"/>
	</g>
</g>
</svg>
