<?xml version="1.0" encoding="utf-8"?>
<!-- Generator: Adobe Illustrator 22.0.1, SVG Export Plug-In . SVG Version: 6.00 Build 0)  -->
<svg version="1.1" id="Layer_1" xmlns="http://www.w3.org/2000/svg" xmlns:xlink="http://www.w3.org/1999/xlink" x="0px" y="0px"
	 viewBox="0 0 84 84" style="enable-background:new 0 0 84 84;" xml:space="preserve">
<style type="text/css">
	.st0{fill:#52351D;}
</style>
<g>
	<path class="st0" d="M20.3,28.4c0,3.7,3,6.8,6.8,6.8s6.8-3,6.8-6.8s-3-6.8-6.8-6.8S20.3,24.7,20.3,28.4z M31.2,28.4
		c0,2.2-1.8,4.1-4.1,4.1S23,30.7,23,28.4s1.8-4.1,4.1-4.1S31.2,26.2,31.2,28.4z"/>
	<path class="st0" d="M84,34.2V17.3h-2.7v7.1h-2.7V9.5H67.7v6.8h-8.1v5.4h-5.4V19h-2.7v2.7H37.9V0H19h-2.7H10L2.7,14.6V42H0v21.7
		h9.5v14.9c0,1.5-1.2,2.7-2.7,2.7V84h27.1v-2.7c-1.5,0-2.7-1.2-2.7-2.7V63.7h21.7v14.9c0,1.5-1.2,2.7-2.7,2.7V84h27.1v-2.7
		c-1.5,0-2.7-1.2-2.7-2.7V63.7H84V42h-5.4V27.1h2.7v7.1H84z M70.4,19v23h-8.1V19H70.4z M54.2,32.5v-2.7h5.4v6.8H37.9v-6.8h13.5v2.7
		H54.2z M37.9,39.3h21.7V42H37.9V39.3z M59.6,24.4v2.7h-5.4v-2.7H59.6z M51.5,24.4v2.7H37.9v-2.7H51.5z M35.2,2.7v2.7h-2.7v2.7h2.7
		V42H19V8.1h10.8V5.4H19V2.7H35.2z M5.4,15.2l6.3-12.5h4.6V42H5.4V15.2z M29.2,81.3H11.5c0.5-0.8,0.7-1.7,0.7-2.7V63.7h2.7v9.5
		c0,3,2.4,5.4,5.4,5.4s5.4-2.4,5.4-5.4v-9.5h2.7v14.9C28.4,79.6,28.7,80.5,29.2,81.3z M17.6,63.7H23v9.5c0,1.5-1.2,2.7-2.7,2.7
		s-2.7-1.2-2.7-2.7V63.7z M72.5,81.3H54.8c0.5-0.8,0.7-1.7,0.7-2.7V63.7h2.7v9.5c0,3,2.4,5.4,5.4,5.4c3,0,5.4-2.4,5.4-5.4v-9.5h2.7
		v14.9C71.8,79.6,72.1,80.5,72.5,81.3z M61,63.7h5.4v9.5c0,1.5-1.2,2.7-2.7,2.7c-1.5,0-2.7-1.2-2.7-2.7V63.7z M81.3,47.4h-2.7v2.7
		h2.7V61H2.7V50.1h73.2v-2.7H2.7v-2.7h78.6V47.4z M73.2,42V16.3h-2.7v-4.1h5.4V42H73.2z"/>
</g>
</svg>
