<?xml version="1.0" encoding="utf-8"?>
<!-- Generator: Adobe Illustrator 22.0.1, SVG Export Plug-In . SVG Version: 6.00 Build 0)  -->
<svg version="1.1" id="Layer_1" xmlns="http://www.w3.org/2000/svg" xmlns:xlink="http://www.w3.org/1999/xlink" x="0px" y="0px"
	 viewBox="0 0 92.6 98.8" style="enable-background:new 0 0 92.6 98.8;" xml:space="preserve">
<style type="text/css">
	.st0{fill:#52351D;}
</style>
<g>
	<path class="st0" d="M34.2,0c-8.3,0-15.3,5.5-17.3,13.4c-1.6-0.8-3.4-1.2-5.2-1.2C5.3,12.2,0,17.4,0,23.9c0,6,4.7,11.2,10.7,11.7
		c0.3,0,0.6,0.1,1,0.1h3.6v-2.4h-3.6c-0.2,0-0.5,0-0.8,0c-4.8-0.4-8.6-4.5-8.6-9.3c0-5.2,4.2-9.4,9.4-9.4c1.9,0,3.8,0.6,5.3,1.7
		l1.6,1.1l0.3-1.9c1.2-7.6,7.6-13.1,15.3-13.1c8.5,0,15.5,6.9,15.5,15.5c0,7.4-5.3,13.8-12.7,15.2c-0.6,0.2-1.2,0.2-1.8,0.2H35v2.4
		h0.2c0.8,0,1.6-0.1,2.3-0.3C45.9,33.7,52,26.4,52,17.8C52,8,44,0,34.2,0z"/>
	<path class="st0" d="M25.1,26.9l-0.9,1.1c-1,1.2-9.5,11.6-9.5,17.2c0,6,4.7,10.8,10.4,10.8s10.4-4.9,10.4-10.8
		c0-5.6-8.6-16.1-9.5-17.2L25.1,26.9z M25.1,53.6c-4.5,0-8.1-3.8-8.1-8.5c0-3.6,5.2-10.9,8.1-14.6c2.9,3.7,8.1,11,8.1,14.6
		C33.2,49.8,29.5,53.6,25.1,53.6z"/>
</g>
<path class="st0" d="M91.6,22.8L91,22.4l0.8-1.1c1.2-1.7,0.9-4-0.8-5.3l-5-3.8c-1.7-1.2-4-0.9-5.3,0.8l-0.8,1.1l-0.6-0.5
	c0.2-0.4,0.2-0.8,0-1c-0.3-0.2-0.6,0.3-1.1,0.9c-0.4,0.6-0.7,0.9-0.4,1.1c0.2,0.2,0.6,0,1-0.3l0.6,0.5l-4.1,5.5l-0.8-0.6
	c0.2-0.4,0.2-0.8,0-1c-0.3-0.2-0.7,0.3-1.1,0.9c-0.4,0.6-0.7,0.9-0.4,1.1c0.2,0.2,0.6,0,1-0.3l0.8,0.6L73,23.3c-0.7,0.9-0.9,2-0.7,3
	L59.4,43.5c-5-2.1-10.4-2.1-13.7,1.7c-1.8,2.1-3.1,4.2-4.5,6.6c-0.9,1.5-1.8,3.3-3,4.6c-0.8,0.8-1.7,1.4-2.8,1.8
	c-7.8,2.8-16.1,8.2-16.2,17.4c-0.1,7.1,4.7,13.6,10.2,17.7c5.5,4.1,13.1,6.8,19.8,4.7c8.8-2.8,11.6-12.2,12.1-20.5
	c0.1-1.2,0.3-2.2,0.9-3.2c0.9-1.5,2.3-2.9,3.5-4.2c1.9-2,3.6-3.9,5.1-6.2c2.7-4.3,1.2-9.4-2.3-13.6l12.9-17.2c1-0.1,2-0.6,2.6-1.5
	l1.7-2.3l0.6,0.5c-0.2,0.4-0.2,0.8,0,1c0.3,0.2,0.5-0.2,1-0.7c0.4-0.6,0.8-1.1,0.5-1.3c-0.2-0.2-0.6,0-1,0.3l-0.6-0.5l4.1-5.5
	l0.6,0.5c-0.2,0.4-0.2,0.8,0,1c0.3,0.2,0.5-0.2,1-0.7c0.4-0.6,0.8-1.1,0.5-1.3C92.3,22.4,91.9,22.5,91.6,22.8z M82.7,14.6
	c0.4-0.5,1.2-0.6,1.7-0.2l5,3.8c0.5,0.4,0.6,1.2,0.2,1.7l-0.8,1.1l-1.5-1.1c-0.2-0.1-0.5-0.1-0.6,0.1c0,0,0,0,0,0l-4.3,5.8L81.6,25
	c0,0,0,0,0,0l0.2-0.3l-0.3-0.3l-3.2,4.3l-0.9-0.6l2.7-3.6c0,0,0,0,0,0c0,0,0,0,0,0l0.4-0.6l-0.3-0.3L80,23.9c0,0,0,0,0,0l-0.8-0.6
	l4.3-5.8c0,0,0,0,0-0.1c0.1-0.2,0.1-0.5-0.1-0.6l-1.5-1.1L82.7,14.6z M53.6,69.9c-1.3,1.7-3.3,2.4-5.3,2.1l5.8-7.8
	C55,66.1,54.9,68.2,53.6,69.9z M47.9,72c-0.4-0.1-0.7-0.2-1.1-0.4l6.4-8.6c0.3,0.3,0.5,0.6,0.7,0.9L47.9,72z M43.1,78.4
	c-0.1,0-0.3,0-0.3,0.2c-0.1,0.2-0.1,0.4,0.1,0.6c0.2,0.1,0.4,0.1,0.6-0.1c0.1-0.1,0.1-0.3,0-0.4l0.8-1.1l3.8,2.9
	c0.1,0.1,0.1,0.2,0,0.2l-1,1.3c0,0.1-2.6,0.6-2.8,0.4c-2.9-2.2-5.9-4.4-8.8-6.6c-0.2-0.2-0.4-2.7-0.4-2.8l1-1.3
	c0.1-0.1,0.2-0.1,0.2,0l3.9,2.9l-0.9,1.2c-0.1,0-0.3,0-0.3,0.2c-0.1,0.2-0.1,0.4,0.1,0.6c0.2,0.1,0.4,0.1,0.6-0.1
	c0.1-0.1,0.1-0.3,0-0.4l0.9-1.1l0.9,0.6l-0.9,1.2c-0.1,0-0.3,0-0.3,0.2c-0.1,0.2-0.1,0.4,0.1,0.6c0.2,0.1,0.4,0.1,0.6-0.1
	c0.1-0.1,0.1-0.3,0-0.4l0.8-1.1l0.9,0.6l-0.9,1.2c-0.1,0-0.3,0-0.3,0.2c-0.1,0.2-0.1,0.4,0.1,0.6s0.4,0.1,0.6-0.1
	c0.1-0.1,0.1-0.3,0-0.4l0.8-1.1l0.9,0.6L43.1,78.4z M44.8,63.4c1.3-1.7,3.4-2.5,5.4-2.1l-5.9,7.9C43.4,67.4,43.5,65.1,44.8,63.4z
	 M50.7,61.4c0.4,0.1,0.7,0.2,1,0.4l-6.5,8.7c-0.3-0.3-0.5-0.6-0.7-0.9L50.7,61.4z M75.5,29.9l-23,30.8c-0.3-0.2-0.7-0.3-1-0.5
	l23.1-31L75.5,29.9z M76.2,27.2l2.5-3.3l0.8,0.6c0,0,0,0,0,0L77,27.9L76.2,27.2z M45.2,72.1c0.2,0.1,0.3,0.2,0.5,0.3l-2.1,2.9
	l-0.9-0.6l2.1-2.8C44.9,71.9,45,72,45.2,72.1z M45.9,71.1c-0.1-0.1-0.3-0.2-0.4-0.3l6.5-8.8c0.1,0.1,0.3,0.2,0.4,0.3
	c0.2,0.1,0.3,0.3,0.5,0.4l-6.5,8.7C46.3,71.3,46.1,71.2,45.9,71.1z M53.3,61.2c-0.1-0.1-0.3-0.2-0.4-0.3l23-30.8l0.9,0.6l-23,30.8
	C53.6,61.5,53.4,61.4,53.3,61.2z M44.5,71.5l-2.1,2.9l-0.9-0.6l2.3-3.1C44,71,44.2,71.2,44.5,71.5z M43.9,75.5l2.2-2.9
	c0.3,0.2,0.7,0.3,1,0.4l-2.3,3.1L43.9,75.5z M54,61.9l23-30.8l0.9,0.6L54.7,62.8C54.5,62.5,54.3,62.2,54,61.9z M78.6,29l2.5-3.3
	c0,0,0,0,0,0l0.9,0.6l-2.5,3.3L78.6,29z M81.4,16.3l1.5,1.1l0,0L78.8,23l-1.5-1.1L81.4,16.3z M75.1,24.9l1.7-2.3l1.5,1.1L75.8,27
	l-0.5-0.4C74.8,26.2,74.7,25.4,75.1,24.9z M68.7,62.6c-4.1,6.5-9.6,8.5-9.9,14.8c-2.3,44.4-64.4-1.8-22.5-16.7
	c5.9-2.1,6.3-7.9,11.3-13.7c2.4-2.7,6.3-2.8,10.2-1.3l-2.7,3.6c-1.2,1.6-1.2,2.4,0.4,3.7l18.3-24.4l0.5,0.4L51.1,60.2
	c-2.6-0.7-5.6,0.1-7.3,2.5c-1.7,2.3-1.7,5.4-0.3,7.7l-2.4,3.2l-3.9-2.9c-0.6-0.5-1.6-0.3-2,0.3l-1,1.3c-0.3,0.4-0.3,0.8-0.2,1.3
	c0,0.3,0.1,0.7,0.1,1c0.1,0.7,0.2,1.8,0.8,2.3c2.9,2.2,5.9,4.4,8.8,6.6c0.6,0.5,1.7,0.2,2.4,0.1c0.3-0.1,0.7-0.1,1-0.2
	c0.5-0.1,0.9-0.2,1.2-0.6l1-1.3c0.5-0.6,0.3-1.6-0.3-2l-3.8-2.9l2.4-3.2c2.6,0.7,5.5-0.2,7.2-2.5c1.7-2.3,1.7-5.3,0.4-7.6L78.3,32
	l0.5,0.4L60.6,56.7c1.8,1.2,2.5,0.9,3.7-0.7l2.7-3.6C69.5,55.8,70.6,59.5,68.7,62.6z M82,30.1c-0.4,0.5-1.2,0.6-1.7,0.2l-0.5-0.4
	l2.5-3.3l1.5,1.1L82,30.1z M84.3,27l-1.5-1.1l4.1-5.5c0,0,0,0,0,0l1.5,1.1L84.3,27z"/>
</svg>
