<?xml version="1.0" encoding="utf-8"?>
<!-- Generator: Adobe Illustrator 22.0.1, SVG Export Plug-In . SVG Version: 6.00 Build 0)  -->
<svg version="1.1" id="Layer_1" xmlns="http://www.w3.org/2000/svg" xmlns:xlink="http://www.w3.org/1999/xlink" x="0px" y="0px"
	 viewBox="0 0 78.6 78.6" style="enable-background:new 0 0 78.6 78.6;" xml:space="preserve">
<style type="text/css">
	.st0{fill:#52351D;}
</style>
<g>
	<path class="st0" d="M15.1,25c2.4,0,3.5-3.9,3.5-7.7s-1.3-7.7-3.5-7.7s-3.5,3.9-3.5,7.7S12.8,25,15.1,25z M15.1,11.6
		c0.4,0,1.7,2,1.7,5.7S15.6,23,15.1,23c-0.5,0-1.7-2-1.7-5.7S14.7,11.6,15.1,11.6z"/>
	<path class="st0" d="M14.4,36.3c4.8,0,8.6-7.5,8.6-17.1S19.2,2.2,14.4,2.2S5.9,9.7,5.9,19.3S9.6,36.3,14.4,36.3z M14.4,4.1
		c3.2,0,6.6,6.1,6.6,15.1s-3.5,15.1-6.6,15.1s-6.6-6-6.6-15S11.2,4.1,14.4,4.1z"/>
	<path class="st0" d="M37,0.8C36.9,0.3,36.5,0,36,0h-5.1h-9.3H5.1H0.9C0.4,0,0,0.4,0,0.9v55v21.8c0,0.6,0.4,0.9,0.9,0.9h28.9
		c0.6,0,0.9-0.4,0.9-0.9c0-8.5,2-11,4.2-14c3.1-4,6.6-8.5,6.6-27.3C41.6,29.4,38.2,7.9,37,0.8z M21.1,1.9c2.4,5,3.8,12.1,3.8,19.4
		c0,14.3-5.3,26.3-11.5,26.3S1.9,35.6,1.9,21.4C1.9,14,3.3,7,5.7,2L21.1,1.9L21.1,1.9z M1.9,1.9h1.7C3,3.4,2.4,5,1.9,6.8V1.9z
		 M13.4,49.7c7.6,0,13.4-12.4,13.4-28.3c0-7.2-1.3-14.2-3.6-19.4h7.1c2,6.8,2.9,14.5,2.9,22.6c0,23.3-8.4,42.2-18.7,42.2
		c-4.6,0-9-3.9-12.5-10.9V36.1C4.2,44.3,8.5,49.7,13.4,49.7z M33.5,62.5c-2.3,3-4.5,5.7-4.6,14.2h-27V59.6c3.6,5.7,7.9,8.9,12.5,8.9
		c11.6,0,20.7-19.3,20.7-44c0-8-1-15.7-2.9-22.6h3.1c1.3,7.5,4.4,27.9,4.4,34.5C39.7,54.6,36.4,58.8,33.5,62.5z"/>
	<path class="st0" d="M77.7,0h-6h-8.3H48c-0.4,0-0.7,0.2-0.9,0.6s-0.2,0.8,0.1,1C52.1,7.4,51,21,50.3,30c-0.2,2.6-0.4,4.8-0.4,6.4
		c0,18.9,4.6,23.4,8.6,27.4c2.9,2.9,5.4,5.4,5.4,13.8c0,0.6,0.4,0.9,0.9,0.9h12.7c0.6,0,0.9-0.4,0.9-0.9V65.8V48.4V26.9V7.1V0.9
		C78.6,0.4,78.3,0,77.7,0z M76.8,25.6c-2.3-1.1-4-4.6-4-8.6c0-4,1.7-7.5,4-8.6V25.6z M76.8,1.9v4.4c-3.5,1.1-6,5.5-6,10.7
		s2.5,9.5,5.9,10.6v19.3c-4.6-3-7.9-13.4-7.9-25.5C68.7,14,70,7,72.3,2L76.8,1.9L76.8,1.9z M70.2,1.9c-2.1,5.3-3.4,12.2-3.4,19.5
		c0,13.6,4.1,25,9.8,27.7v15.3c-9.8-5.9-16.4-21.9-16.4-39.8c0-8,1.3-15.8,3.9-22.6L70.2,1.9L70.2,1.9z M65.9,76.8
		c-0.2-8.5-3-11.3-6-14.3c-3.8-3.7-8-7.9-8-26c0-1.5,0.2-3.7,0.4-6.2C53,21.5,54,8.9,49.9,2h12.3c-2.4,6.8-3.7,14.5-3.7,22.6
		c0,19.1,7.6,36.2,18.3,42v10.3L65.9,76.8L65.9,76.8z"/>
	<path class="st0" d="M46.3,62.3c-4.8,0-8.5,6.3-8.5,14.3c0,0.4,0,0.8,0,1.1c0,0.6,0.5,0.9,0.9,0.9h15.1c0.6,0,0.9-0.4,0.9-0.9
		c0-0.4,0-0.7,0-1.1C54.9,68.6,51.1,62.3,46.3,62.3z M44.3,72.4c0-2.4,1.1-4.3,2-4.3s2,1.8,2,4.3c0,2.4-1.1,4.3-2,4.3
		S44.3,74.9,44.3,72.4z M52.9,76.8h-3.8c0.7-1.1,1.1-2.6,1.1-4.3c0-3.5-1.7-6.2-3.9-6.2s-3.9,2.8-3.9,6.2c0,1.7,0.4,3.2,1.1,4.3
		h-3.8c0-0.1,0-0.1,0-0.2c0-6.7,3.1-12.3,6.6-12.3s6.6,5.7,6.6,12.3C52.9,76.7,52.9,76.7,52.9,76.8z"/>
</g>
</svg>
