<?xml version="1.0" encoding="utf-8"?>
<!-- Generator: Adobe Illustrator 22.0.1, SVG Export Plug-In . SVG Version: 6.00 Build 0)  -->
<svg version="1.1" id="Layer_1" xmlns="http://www.w3.org/2000/svg" xmlns:xlink="http://www.w3.org/1999/xlink" x="0px" y="0px"
	 viewBox="0 0 38.9 43.7" style="enable-background:new 0 0 38.9 43.7;" xml:space="preserve">
<style type="text/css">
	.st0{fill:#271A15;}
</style>
<path class="st0" d="M14.5,38.3L35,43.7l-5.1-7.8c4-2.5,7-6.5,8.3-11.4C41,14,34.8,3.4,24.4,0.6C14-2.1,3.4,4.1,0.6,14.5
	S4.1,35.6,14.5,38.3z M11,25.3l4.1-3.8c0,0,2.1,2.3,3,2c0,0,2.9-1.7,5.2-6.4c0.4-0.9-2.6-2.5-2.6-2.5l2.9-4.8c0,0,4.5,2.3,4.2,4.9
	c-0.3,2.6-2.4,9.7-10.5,13.7C14.4,29.7,11,25.3,11,25.3z"/>
</svg>
