<?xml version="1.0" encoding="utf-8"?>
<!-- Generator: Adobe Illustrator 22.0.0, SVG Export Plug-In . SVG Version: 6.00 Build 0)  -->
<svg version="1.1" id="Layer_1" xmlns="http://www.w3.org/2000/svg" xmlns:xlink="http://www.w3.org/1999/xlink" x="0px" y="0px"
	 viewBox="0 0 2500 484" style="enable-background:new 0 0 2500 484;" xml:space="preserve">
<style type="text/css">
	.st0{fill:#004F9D;}
</style>
<title>facebook</title>
<g id="_Group_">
	<path id="_Path_" class="st0" d="M195.8,76.4c-29.3,0-38.1,12.9-38.1,41.6v47.5h78.6l-7.6,77.4h-70.9v233.9H63.3V242.9H0v-76.8
		h63.3v-46.3C63.3,41.2,95,0.1,182.3,0.1c18.2,0,36.9,1.2,55.1,3.5v72.7"/>
	<path id="_Compound_Path_" class="st0" d="M242.7,311.5c0-86.8,41-152.4,127.8-152.4c46.9,0,75.6,24,89.7,54.5v-47.5h90.3v311.3
		h-90.9v-46.9c-12.9,29.9-42.8,53.4-89.7,53.4c-86.2,0-127.8-65.1-127.8-152.4 M337.1,332.6c0,46.3,17,77.4,61,77.4
		c38.7,0,58-28.1,58-72.7v-31.7c0-44.6-19.9-72.7-58-72.7c-44,0-61,30.5-61,77.4L337.1,332.6L337.1,332.6z"/>
	<path id="_Path_2" class="st0" d="M746.4,159c36.4,0,71.5,7.6,90.3,21.1L815.5,247c-19.3-9.4-41-14.1-62.7-14.1
		c-51,0-73.3,29.3-73.3,79.7v18.2c0,50.4,22.3,79.7,73.3,79.7c21.7,0,43.4-5.3,62.7-14.7l21.1,66.8c-18.8,12.9-53.4,21.1-90.3,21.1
		c-110.8,0-160.6-59.2-160.6-154.8v-14.7C585.7,218.8,635.6,159,746.4,159"/>
	<path id="_Compound_Path_2" class="st0" d="M849,333.2v-27.6c0-88.5,50.4-146.6,153-146.6c96.7,0,139.5,58.6,139.5,145.4v49.8
		H943.4c1.8,42.8,21.1,61.6,73.3,61.6c34,0,68-6.4,100.3-18.8l17,64.5c-24.6,12.9-75.6,22.9-120.8,22.9
		C893.5,483.9,849,424.6,849,333.2 M943.4,292.1h113.7v-7.6c0-34-13.5-61-55.1-61C959.8,223.5,943.4,250.5,943.4,292.1"/>
	<path id="_Compound_Path_3" class="st0" d="M1491,331.4c0,86.8-41.6,152.4-128.4,152.4c-46.9,0-79.7-23.5-92.6-53.4v46.9h-89.1V9.5
		l94.4-8.2v208.1c13.5-27.6,44-49.8,87.9-49.8c86.2,0,128.4,65.1,128.4,152.4 M1396.6,309.7c0-44-17-76.8-62.1-76.8
		c-38.7,0-59.2,27.6-59.2,72.1v32.8c0,44.6,21.1,72.1,59.2,72.1c45.1,0,62.1-32.8,62.1-76.8V309.7L1396.6,309.7z"/>
	<path id="_Compound_Path_4" class="st0" d="M1522,329.1v-15.8c0-89.7,51-154.2,154.8-154.2c103.8,0,154.8,64.5,154.8,154.2v15.8
		c0,89.7-51,154.2-154.8,154.2C1573.1,483.3,1522,419.4,1522,329.1 M1737.8,306.8c0-41-17-73.9-61-73.9c-44,0-61,32.8-61,73.9v29.3
		c0,41,17,73.9,61,73.9c44,0,61-32.8,61-73.9V306.8z"/>
	<path id="_Compound_Path_5" class="st0" d="M1863.9,329.1v-15.8c0-89.7,51-154.2,154.8-154.2c103.8,0,154.8,64.5,154.8,154.2v15.8
		c0,89.7-51,154.2-154.8,154.2C1914.9,483.3,1863.9,419.4,1863.9,329.1 M2079.6,306.8c0-41-17-73.9-61-73.9s-61,32.8-61,73.9v29.3
		c0,41,17,73.9,61,73.9s61-32.8,61-73.9V306.8z"/>
	<path id="_Path_3" class="st0" d="M2303,314.4l93.2-148.9h99.7l-97.3,154.2L2500,477.4h-100.3L2303,325v152.4h-93.8V9.5l93.8-8.8"
		/>
</g>
</svg>
