<?xml version="1.0" encoding="utf-8"?>
<!-- Generator: Adobe Illustrator 22.0.1, SVG Export Plug-In . SVG Version: 6.00 Build 0)  -->
<svg version="1.1" id="Layer_1" xmlns="http://www.w3.org/2000/svg" xmlns:xlink="http://www.w3.org/1999/xlink" x="0px" y="0px"
	 viewBox="0 0 31.8 38" style="enable-background:new 0 0 31.8 38;" xml:space="preserve">
<style type="text/css">
	.st0{fill:#FFFFFF;}
</style>
<g>
	<path class="st0" d="M27.1,4.7C21-1.6,10.9-1.6,4.7,4.7s-6.2,16.3,0,22.5l10.6,10.6c0.2,0.2,0.4,0.3,0.6,0.3c0.2,0,0.5-0.1,0.6-0.3
		l10.6-10.6C33.4,20.9,33.4,10.9,27.1,4.7z M25.9,25.9l-9.9,9.9L6,25.9C0.5,20.4,0.5,11.5,6,6s14.4-5.5,19.9,0
		C31.3,11.4,31.4,20.3,25.9,25.9z"/>
	<path class="st0" d="M15.9,7.1c-4.7,0-8.6,3.9-8.6,8.6s3.9,8.6,8.6,8.6s8.6-3.9,8.6-8.6S20.7,7.1,15.9,7.1z M15.9,22.5
		c-3.7,0-6.8-3-6.8-6.8s3-6.8,6.8-6.8s6.8,3,6.8,6.8S19.6,22.5,15.9,22.5z"/>
</g>
</svg>
