<?xml version="1.0" encoding="utf-8"?>
<!-- Generator: Adobe Illustrator 22.0.1, SVG Export Plug-In . SVG Version: 6.00 Build 0)  -->
<svg version="1.1" id="Layer_1" xmlns:sketch="http://www.bohemiancoding.com/sketch/ns"
	 xmlns="http://www.w3.org/2000/svg" xmlns:xlink="http://www.w3.org/1999/xlink" x="0px" y="0px" viewBox="0 0 112.8 99.5"
	 style="enable-background:new 0 0 112.8 99.5;" xml:space="preserve">
<style type="text/css">
	.st0{fill:#FFFFFF;}
</style>
<title>Fill 1</title>
<desc>Created with Sketch.</desc>
<g>
	<path id="Fill-4_1_" sketch:type="MSShapeGroup" class="st0" d="M53.4,37.1c5.7,0,7.6,1.1,7.6,1.1l-0.6,3.7l-4.3,0.6
		c0,0-1.9-1.5-5.5-1.5c-3.8,0-5,1.4-5,1.4c-1.4,2-2.2,6.4-2.2,10.7c0,2.8,0.4,8.2,3.4,8.2c4.3-3.8,6.6-10.1,8.1-15.7l5.8,0.7
		c-0.1,3.9-0.2,7-0.2,12.7l0.6,6l-3.4,0.6H55c0-8.1,0.7-13.1,0.7-16.6c-1.6,7.5-5,14.2-9.1,17.2c-3.2,0-5.9-1.3-7.3-3
		c-0.7-1.7-1.2-4.2-1.2-7.5C38.2,44.2,42.6,37.1,53.4,37.1"/>
	<path id="Fill-5_1_" sketch:type="MSShapeGroup" class="st0" d="M70.6,53.6c4.6-1.4,8.1-4.1,9.8-6.5c0.3-0.7,0.4-1.8,0.4-2.5
		c0-1.2-0.2-3.3-4.2-3.3c-1.2,0-3.1,0.4-4.2,1.1c-1.1,2-1.9,5.4-1.9,9.2C70.5,52.3,70.5,53,70.6,53.6L70.6,53.6z M79,37.1
		c4.8,0,6.5,2.2,6.5,2.2S86,41,86,43.2c0,8.6-8.4,11.1-13.9,12.2l-1.4,0.3c0.5,3.9,2.1,6.5,6.3,6.5c1.7,0,4-0.8,6.7-1.8L85,63
		c-2,1.8-4.9,3.1-8.8,3.1c-4.7,0-7.9-1.6-9.2-3c-1.1-1.8-1.7-5.2-1.7-9.4C65.3,43.9,70.4,37.1,79,37.1L79,37.1z"/>
	<path id="Fill-6_1_" sketch:type="MSShapeGroup" class="st0" d="M91.3,38.6h3.3c0,0,2.9,16,5.5,22.7h0.6c1.8-1.1,3.4-3.1,5.2-7.1
		c1.8-4.1,3.5-10.2,3.5-14.4c-1.9-2.4-7.5-5.3-7.5-5.3l1.7-4.1h3.4c2,1.3,5.8,3.8,5.8,10.7c0,8.8-3.6,19.6-10.7,24.8
		c-3.2,0-5.9-1.3-7.3-3l-4.1-16.9l-2-6.7L91.3,38.6"/>
	<path id="Fill-7_1_" sketch:type="MSShapeGroup" class="st0" d="M33,27.2c0,0-3.3-4-12.2-4c-2.6,0-5.1,0.4-7.2,0.9
		C6,25.8,1.3,29.5,0.2,31L0,34.4l3.5,1.7c0,0,4.1-5.4,6.6-7.2h0c1.7-0.6,4.3-1.2,4.3-1.2c1.3-0.3,3.2-0.6,5.6-0.6
		c8.2,0,9.9,5.3,9.9,17.5c0,4.7-0.8,11.4-2.2,14.3c-1.1,1.4-4.2,2.7-8.1,2.7c-1.7,0-3.6-0.2-4.8-0.7l-0.3-1.8l0.4-27l-5.3,1L9,65.2
		c0,0,4.8,0.8,8.9,0.8c12.9,0,17.3-6.5,17.3-24.4C35.2,35.4,34.2,29.5,33,27.2"/>
	<path id="Fill-8_1_" sketch:type="MSShapeGroup" class="st0" d="M35.2,10.2c-0.1,0.3-0.2,0.7-0.4,1c-0.2,0.3-0.4,0.6-0.8,0.8
		c-0.3,0.2-0.7,0.3-1.1,0.4c-0.4,0-0.7,0-1-0.1c-0.3-0.1-0.6-0.3-0.9-0.5c-0.3-0.2-0.5-0.5-0.7-0.8c-0.2-0.3-0.3-0.6-0.4-0.9
		c-0.1-0.3-0.1-0.7-0.1-1c0-0.3,0.1-0.6,0.3-0.9c0.2-0.3,0.4-0.5,0.8-0.7C31.4,7.1,31.8,7,32.2,7c0.4,0,0.7,0,1.1,0.2L33,7.9
		c-0.3-0.1-0.6-0.2-0.9-0.1c-0.2,0-0.5,0.1-0.7,0.2c-0.2,0.1-0.4,0.3-0.5,0.5c-0.1,0.2-0.2,0.4-0.2,0.6s0,0.4,0.1,0.7
		c0.1,0.2,0.2,0.4,0.3,0.7c0.1,0.2,0.3,0.4,0.5,0.5c0.2,0.2,0.4,0.3,0.6,0.3c0.2,0.1,0.4,0.1,0.7,0.1c0.2,0,0.5-0.1,0.7-0.2
		c0.2-0.1,0.3-0.2,0.5-0.4c0.1-0.1,0.2-0.3,0.3-0.5l-0.6-1L32.5,10l-0.4-0.7L34,8.2L35.2,10.2L35.2,10.2"/>
	<path id="Fill-9_1_" sketch:type="MSShapeGroup" class="st0" d="M38.8,9.5c-0.2,0.1-0.5,0.1-0.7,0.1c-0.2,0-0.5,0-0.7-0.1
		c-0.2-0.1-0.4-0.2-0.6-0.4c-0.2-0.2-0.3-0.4-0.4-0.6L35,5.2l0.8-0.3l1.4,3.2c0.1,0.2,0.2,0.3,0.3,0.4c0.1,0.1,0.2,0.2,0.4,0.2
		c0.1,0,0.3,0.1,0.4,0c0.1,0,0.3,0,0.5-0.1c0,0,0,0,0.1,0c0,0,0,0,0,0l0.1,0c0,0,0,0,0,0c0,0,0,0,0,0c0.1-0.1,0.3-0.2,0.4-0.3
		c0.1-0.1,0.2-0.2,0.3-0.3c0.1-0.1,0.1-0.3,0.1-0.4c0-0.1,0-0.3-0.1-0.5l-1.4-3.2l0.8-0.3l1.4,3.3c0.1,0.2,0.1,0.5,0.1,0.7
		c0,0.2,0,0.5-0.1,0.7c-0.1,0.2-0.2,0.4-0.4,0.6c-0.2,0.2-0.4,0.3-0.6,0.5l-0.2,0.1l-0.1,0C39,9.4,38.9,9.4,38.8,9.5"/>
	<path id="Fill-10_1_" sketch:type="MSShapeGroup" class="st0" d="M42.7,7.9L41,2.8l0.8-0.3l1.7,5.1L42.7,7.9"/>
	<path id="Fill-11_1_" sketch:type="MSShapeGroup" class="st0" d="M46.2,2.2l1.1,4.4l-0.8,0.2l-1.1-4.4l-1.2,0.3l-0.2-0.8l3.2-0.8
		l0.2,0.8L46.2,2.2"/>
	<path id="Fill-12_1_" sketch:type="MSShapeGroup" class="st0" d="M50.8,3.5l1.1-0.1c-0.1-0.1-0.1-0.3-0.2-0.4
		c-0.1-0.1-0.1-0.2-0.2-0.3c-0.1-0.1-0.1-0.2-0.2-0.3c-0.1-0.1-0.1-0.3-0.2-0.4L50.8,3.5L50.8,3.5z M52.3,4.1l-1.7,0.2l-0.3,1.6
		l-0.9,0.1l1.2-5.6l0.8-0.1L54,5.5l-0.9,0.1L52.3,4.1L52.3,4.1z"/>
	<path id="Fill-13_1_" sketch:type="MSShapeGroup" class="st0" d="M56.5,2.4l1.2,0c0.1,0,0.2,0,0.3-0.1c0.1,0,0.2-0.1,0.2-0.2
		c0.1-0.1,0.1-0.2,0.2-0.2c0-0.1,0.1-0.2,0.1-0.3c0-0.2-0.1-0.4-0.2-0.5c-0.2-0.1-0.3-0.2-0.5-0.2l-1.2,0L56.5,2.4L56.5,2.4z
		 M57.4,3.2l-1,0l0,2.2l-0.8,0L55.6,0l2,0c0.2,0,0.4,0,0.6,0.1c0.2,0.1,0.4,0.2,0.5,0.3C58.9,0.6,59,0.8,59.1,1
		c0.1,0.2,0.1,0.4,0.1,0.6c0,0.3-0.1,0.6-0.2,0.9c-0.2,0.3-0.4,0.5-0.7,0.6l1.2,2.3l-0.9,0L57.4,3.2L57.4,3.2z"/>
	<path id="Fill-14_1_" sketch:type="MSShapeGroup" class="st0" d="M68.5,6.5l0.7-3.6l-2,2.2l-1.1-2.8l-0.7,3.5l-0.8-0.2l1-5.3
		l0.6,0.1l1.2,3.1l2.3-2.4l0.6,0.1l-1,5.3L68.5,6.5"/>
	<path id="Fill-15_1_" sketch:type="MSShapeGroup" class="st0" d="M73.3,5.4l1,0.4c0-0.2,0-0.3,0-0.4c0-0.1,0-0.2,0-0.4
		c0-0.1,0-0.2,0-0.4c0-0.1,0-0.3,0-0.5L73.3,5.4L73.3,5.4z M74.4,6.7l-1.6-0.5l-1,1.3l-0.9-0.3l3.5-4.5l0.7,0.3l0.1,5.7l-0.9-0.3
		L74.4,6.7L74.4,6.7z"/>
	<path id="Fill-16_1_" sketch:type="MSShapeGroup" class="st0" d="M78.9,6.9L80,7.5c0.1,0,0.2,0.1,0.3,0.1c0.1,0,0.2,0,0.3,0
		c0.1,0,0.2-0.1,0.3-0.1C80.9,7.3,81,7.2,81,7.1c0.1-0.2,0.1-0.4,0-0.6c-0.1-0.2-0.2-0.3-0.4-0.4l-1.1-0.5L78.9,6.9L78.9,6.9z
		 M79.4,8.1l-0.9-0.4l-1,1.9l-0.7-0.4l2.4-4.8L81,5.3c0.2,0.1,0.4,0.2,0.5,0.4c0.1,0.2,0.2,0.3,0.3,0.5c0.1,0.2,0.1,0.4,0.1,0.6
		c0,0.2-0.1,0.4-0.2,0.6c-0.1,0.3-0.3,0.5-0.6,0.7c-0.3,0.2-0.6,0.2-0.9,0.2l0.1,2.6l-0.8-0.4L79.4,8.1L79.4,8.1z"/>
	<path id="Fill-17_1_" sketch:type="MSShapeGroup" class="st0" d="M81.8,11.8l2.9-4.5l0.7,0.4l-1.2,1.9L87.3,9l0.9,0.6l-3.6,0.8
		c0.1,0.3,0.1,0.6,0.2,0.9c0.1,0.3,0.1,0.6,0.2,1c0.1,0.3,0.1,0.6,0.2,1c0.1,0.3,0.1,0.6,0.2,0.9l-1-0.6l-0.6-3.2l-1.3,2L81.8,11.8"
		/>
	<path id="Fill-18_1_" sketch:type="MSShapeGroup" class="st0" d="M28,88.5l2.4-2.7l-2.9,0.9l0.5-2.9l-2.4,2.7L25,85.8l3.6-4
		l0.5,0.4l-0.6,3.3l3.2-0.9l0.5,0.4l-3.6,4L28,88.5"/>
	<path id="Fill-19_1_" sketch:type="MSShapeGroup" class="st0" d="M33.2,89.4l0.9,0.6c0-0.2,0.1-0.3,0.1-0.4c0-0.1,0.1-0.2,0.1-0.4
		c0-0.1,0.1-0.2,0.1-0.4c0-0.1,0.1-0.3,0.1-0.4L33.2,89.4L33.2,89.4z M33.9,90.9L32.5,90l-1.3,1l-0.8-0.5L35,87l0.7,0.4L34.3,93
		l-0.8-0.5L33.9,90.9L33.9,90.9z"/>
	<path id="Fill-20_1_" sketch:type="MSShapeGroup" class="st0" d="M40.8,93.2c0.2-0.5,0.3-1,0.1-1.4c-0.1-0.4-0.5-0.8-1-1l-1-0.5
		l-1.6,3.4l1,0.5c0.3,0.1,0.5,0.2,0.8,0.2c0.2,0,0.5,0,0.7-0.1c0.2-0.1,0.4-0.2,0.6-0.4C40.5,93.7,40.6,93.5,40.8,93.2L40.8,93.2z
		 M41.5,93.6c-0.2,0.3-0.4,0.6-0.6,0.9c-0.2,0.3-0.5,0.4-0.8,0.6c-0.3,0.1-0.6,0.2-1,0.2c-0.4,0-0.7-0.1-1.1-0.3l-1.8-0.8l2.3-4.9
		l1.8,0.8c0.4,0.2,0.7,0.4,1,0.7c0.2,0.3,0.4,0.6,0.5,0.9c0.1,0.3,0.1,0.6,0.1,1C41.8,92.9,41.7,93.3,41.5,93.6L41.5,93.6z"/>
	<path id="Fill-21_1_" sketch:type="MSShapeGroup" class="st0" d="M42.5,96.8l1.6-5.1l3.2,1L47,93.5l-2.4-0.7L44.3,94l2.2,0.7
		l-0.2,0.8L44,94.8l-0.5,1.5l2.4,0.8l-0.2,0.8L42.5,96.8"/>
	<path id="Fill-22_1_" sketch:type="MSShapeGroup" class="st0" d="M51.4,99l0.7-5.3l0.8,0.1l-0.7,5.3L51.4,99"/>
	<path id="Fill-23_1_" sketch:type="MSShapeGroup" class="st0" d="M58,99.5l-2.7-3.9l-0.1,3.8l-0.8,0l0.2-5.4l0.6,0l2.8,3.9l0.1-3.8
		l0.8,0l-0.2,5.4L58,99.5"/>
	<path id="Fill-24_1_" sketch:type="MSShapeGroup" class="st0" d="M64.9,96l1.2-0.2c0.1,0,0.2-0.1,0.3-0.1c0.1-0.1,0.2-0.1,0.2-0.2
		c0.1-0.1,0.1-0.2,0.1-0.3c0-0.1,0-0.2,0-0.3c0-0.2-0.1-0.4-0.3-0.5c-0.2-0.1-0.4-0.2-0.6-0.1l-1.2,0.2L64.9,96L64.9,96z M66,96.6
		l-0.9,0.2l0.4,2.1l-0.8,0.1l-0.9-5.3l2-0.4c0.2,0,0.4,0,0.6,0c0.2,0,0.4,0.1,0.6,0.3c0.2,0.1,0.3,0.3,0.4,0.4
		c0.1,0.2,0.2,0.4,0.2,0.6c0.1,0.3,0,0.6-0.1,0.9c-0.1,0.3-0.3,0.5-0.6,0.7l1.6,2.1l-0.9,0.2L66,96.6L66,96.6z"/>
	<path id="Fill-25_1_" sketch:type="MSShapeGroup" class="st0" d="M72.4,97.3c-0.2,0-0.5,0.1-0.7,0c-0.2,0-0.5-0.1-0.7-0.2
		c-0.2-0.1-0.4-0.2-0.5-0.4c-0.2-0.2-0.3-0.4-0.4-0.6l-1.1-3.4l0.8-0.3l1.1,3.3c0.1,0.2,0.1,0.3,0.2,0.4c0.1,0.1,0.2,0.2,0.3,0.2
		c0.1,0.1,0.3,0.1,0.4,0.1c0.2,0,0.3,0,0.5-0.1c0,0,0,0,0.1,0c0,0,0,0,0,0l0.1,0c0,0,0,0,0,0c0,0,0,0,0.1,0c0.1-0.1,0.3-0.1,0.4-0.2
		c0.1-0.1,0.2-0.2,0.3-0.3c0.1-0.1,0.1-0.2,0.1-0.4c0-0.1,0-0.3-0.1-0.5l-1.1-3.3l0.8-0.3l1.1,3.4c0.1,0.3,0.1,0.5,0.1,0.7
		c0,0.2-0.1,0.4-0.2,0.6c-0.1,0.2-0.2,0.4-0.4,0.5c-0.2,0.2-0.4,0.3-0.6,0.4l-0.2,0.1l-0.1,0C72.7,97.3,72.5,97.3,72.4,97.3"/>
	<path id="Fill-26_1_" sketch:type="MSShapeGroup" class="st0" d="M78,90.6c-0.2-0.1-0.4-0.1-0.6-0.1c-0.2,0-0.4,0.1-0.6,0.2
		c-0.3,0.1-0.4,0.3-0.5,0.5c-0.1,0.2-0.1,0.3,0,0.5c0,0.1,0.1,0.2,0.2,0.2c0.1,0,0.2,0.1,0.4,0.1c0.1,0,0.3,0,0.4,0
		c0.1,0,0.3,0,0.4,0l0,0c0.2,0,0.3,0,0.5,0c0.2,0,0.4,0,0.6,0.1c0.2,0,0.4,0.1,0.6,0.2s0.3,0.3,0.4,0.5c0.1,0.2,0.2,0.5,0.2,0.7
		c0,0.2-0.1,0.4-0.1,0.6c-0.1,0.2-0.2,0.4-0.4,0.5c-0.2,0.2-0.4,0.3-0.6,0.4C78.4,95,78.1,95,77.7,95c-0.4,0-0.8-0.1-1.2-0.3
		l0.4-0.8c0.3,0.2,0.5,0.2,0.8,0.2c0.3,0,0.5-0.1,0.8-0.2c0.1-0.1,0.3-0.1,0.4-0.2c0.1-0.1,0.2-0.2,0.2-0.3c0.1-0.1,0.1-0.2,0.1-0.3
		c0-0.1,0-0.2,0-0.3c-0.1-0.1-0.1-0.2-0.2-0.3c-0.1-0.1-0.2-0.1-0.4-0.1c-0.1,0-0.3,0-0.4,0c-0.2,0-0.3,0-0.5,0.1l-0.2,0
		c-0.2,0-0.4,0-0.5,0c-0.2,0-0.4,0-0.5,0c-0.2,0-0.3-0.1-0.5-0.2c-0.1-0.1-0.3-0.3-0.4-0.5c-0.1-0.2-0.1-0.4-0.2-0.5
		c0-0.2,0-0.4,0.1-0.6c0.1-0.2,0.2-0.4,0.4-0.5c0.2-0.2,0.4-0.3,0.7-0.5c0.2-0.1,0.3-0.1,0.5-0.2c0.2,0,0.3-0.1,0.5-0.1
		c0.2,0,0.4,0,0.5,0.1c0.2,0,0.4,0.1,0.6,0.2l-0.4,0.8L78,90.6"/>
	<path id="Fill-27_1_" sketch:type="MSShapeGroup" class="st0" d="M82.9,87.6c-0.2-0.1-0.4-0.1-0.6-0.1c-0.2,0-0.4,0.1-0.6,0.2
		c-0.2,0.2-0.4,0.3-0.5,0.5c-0.1,0.2-0.1,0.3,0,0.5c0.1,0.1,0.1,0.1,0.2,0.2c0.1,0,0.2,0,0.4,0c0.1,0,0.3,0,0.4-0.1
		c0.1,0,0.3-0.1,0.4-0.1l0,0c0.2,0,0.3-0.1,0.5-0.1c0.2,0,0.4,0,0.6,0c0.2,0,0.4,0.1,0.6,0.2c0.2,0.1,0.4,0.2,0.5,0.4
		c0.1,0.2,0.2,0.4,0.3,0.6c0,0.2,0,0.4-0.1,0.6c-0.1,0.2-0.2,0.4-0.3,0.6c-0.2,0.2-0.3,0.4-0.6,0.5c-0.3,0.2-0.7,0.3-1,0.4
		c-0.4,0-0.8,0-1.2-0.1l0.3-0.8c0.3,0.1,0.6,0.2,0.8,0.1c0.3,0,0.5-0.1,0.7-0.3c0.1-0.1,0.2-0.2,0.3-0.3c0.1-0.1,0.2-0.2,0.2-0.3
		c0-0.1,0.1-0.2,0.1-0.3c0-0.1,0-0.2-0.1-0.3c-0.1-0.1-0.2-0.2-0.3-0.2c-0.1,0-0.2-0.1-0.4-0.1c-0.1,0-0.3,0-0.4,0.1
		c-0.2,0-0.3,0.1-0.4,0.1l-0.2,0c-0.2,0-0.4,0.1-0.5,0.1s-0.3,0-0.5,0c-0.2,0-0.3-0.1-0.5-0.2c-0.2-0.1-0.3-0.2-0.4-0.4
		c-0.1-0.2-0.2-0.3-0.2-0.5c0-0.2,0-0.4,0-0.6c0-0.2,0.1-0.4,0.3-0.6c0.1-0.2,0.3-0.4,0.6-0.6c0.2-0.1,0.3-0.2,0.5-0.3
		c0.2-0.1,0.3-0.1,0.5-0.1c0.2,0,0.4,0,0.5,0c0.2,0,0.4,0.1,0.6,0.1l-0.3,0.9L82.9,87.6"/>
	<path id="Fill-28_1_" sketch:type="MSShapeGroup" class="st0" d="M87.6,89.2l-3.4-4.2l0.6-0.5l3.4,4.2L87.6,89.2"/>
	<path id="Fill-29_1_" sketch:type="MSShapeGroup" class="st0" d="M89.4,84.4l0.8-0.8c-0.1-0.1-0.3-0.1-0.4-0.2
		c-0.1-0.1-0.2-0.1-0.3-0.2c-0.1-0.1-0.2-0.1-0.3-0.2C89,83.1,88.9,83,88.7,83L89.4,84.4L89.4,84.4z M91,84l-1.2,1.2l0.7,1.5
		l-0.7,0.6l-2.4-5.1l0.6-0.6l5.1,2.4l-0.6,0.6L91,84L91,84z"/>
</g>
</svg>
