<?xml version="1.0" encoding="utf-8"?>
<!-- Generator: Adobe Illustrator 22.0.1, SVG Export Plug-In . SVG Version: 6.00 Build 0)  -->
<svg version="1.1"
	 id="Layer_1" xmlns:cc="http://creativecommons.org/ns#" xmlns:dc="http://purl.org/dc/elements/1.1/" xmlns:inkscape="http://www.inkscape.org/namespaces/inkscape" xmlns:rdf="http://www.w3.org/1999/02/22-rdf-syntax-ns#" xmlns:sodipodi="http://sodipodi.sourceforge.net/DTD/sodipodi-0.dtd" xmlns:svg="http://www.w3.org/2000/svg"
	 xmlns="http://www.w3.org/2000/svg" xmlns:xlink="http://www.w3.org/1999/xlink" x="0px" y="0px" viewBox="0 0 36.3 36.3"
	 style="enable-background:new 0 0 36.3 36.3;" xml:space="preserve">
<style type="text/css">
	.st0{fill:#271A15;}
</style>
<g transform="translate(0,-952.36218)">
	<g>
		<path class="st0" d="M18.2,952.4c-10,0-18.2,8.1-18.2,18.2c0,10,8.1,18.2,18.2,18.2s18.2-8.1,18.2-18.2S28.2,952.4,18.2,952.4
			L18.2,952.4z M18.2,959.5c0.7,0,1.3,0.6,1.3,1.3v8.4h7.1c0.7,0,1.3,0.6,1.3,1.3s-0.6,1.3-1.3,1.3h-8.4c-0.7,0-1.3-0.6-1.3-1.3
			v-9.7C16.9,960.1,17.4,959.5,18.2,959.5z"/>
	</g>
</g>
</svg>
