<?xml version="1.0" encoding="utf-8"?>
<!-- Generator: Adobe Illustrator 22.0.0, SVG Export Plug-In . SVG Version: 6.00 Build 0)  -->
<svg version="1.1" id="Layer_1" xmlns="http://www.w3.org/2000/svg" xmlns:xlink="http://www.w3.org/1999/xlink" x="0px" y="0px"
	 viewBox="0 0 38 38" style="enable-background:new 0 0 38 38;" xml:space="preserve">
<path d="M19,0C8.5,0,0,8.5,0,19s8.5,19,19,19s19-8.5,19-19S29.5,0,19,0z M31.7,26.5c-1.6,0-3.2,0-4.7,0c-0.6,0-0.9,0-1.6-0.8
	c-1.2-1.3-2.3-2.5-4-2.7c0,0.9,0,1.8,0,2.6c0,0.5-0.2,0.9-1,0.9c-1,0-2.1,0-3.1,0c-4.4,0-9.4-8.9-11.6-13.2
	c-0.5-0.9-0.1-1.1,0.5-1.1c1.1,0,2.2,0,3.3,0c1.2,0,1.2,0.2,1.6,0.9c1.4,2.4,3.3,5.8,4.7,5.6c0-1.5,0-3.1,0-4.6c0-1.8-1.2-1-1.3-1.7
	c0-0.3,0.6-0.9,1.7-0.9c1.3,0,2.6,0,3.9,0c1,0,1.1,0.5,1.1,1.1c0,2.1,0,4,0,6.1c2-0.2,3.4-3.1,4.6-5.4c0.7-1.3,0.8-1.1,1.7-1.1
	c1.2,0,2.5,0,3.7,0c0.8,0,1,0.3,0.5,1.2c-1.2,1.9-2.5,3.9-3.7,5.8c-0.4,0.6-0.7,0.7,0.1,1.6c1.4,1.7,2.9,3.1,4.3,4.8
	C32.7,26,32.6,26.5,31.7,26.5z"/>
</svg>
