<?xml version="1.0" encoding="utf-8"?>
<!-- Generator: Adobe Illustrator 22.0.0, SVG Export Plug-In . SVG Version: 6.00 Build 0)  -->
<svg version="1.1"
	 id="svg2" xmlns:cc="http://creativecommons.org/ns#" xmlns:dc="http://purl.org/dc/elements/1.1/" xmlns:inkscape="http://www.inkscape.org/namespaces/inkscape" xmlns:rdf="http://www.w3.org/1999/02/22-rdf-syntax-ns#" xmlns:svg="http://www.w3.org/2000/svg"
	 xmlns="http://www.w3.org/2000/svg" xmlns:xlink="http://www.w3.org/1999/xlink" x="0px" y="0px" viewBox="0 0 1946.9 182.7"
	 style="enable-background:new 0 0 1946.9 182.7;" xml:space="preserve">
<g id="g10" transform="matrix(1.25,0,0,-1.25,0,517.5)">
	<g id="g12" transform="scale(0.113361,0.113361)">
		<path id="path18" inkscape:connector-curvature="0" d="M4279.9,2395.4l-289.5,484.3h-98v-484.3h-380.9v1222.3h380.9v-490.9
			c53.7,0.7,93.8,8.5,120.3,23.4c26.5,14.9,55.3,54.2,86.5,118.1c10.2,21.8,21,45.7,32.7,71.8c11.6,26.1,22.1,49.4,31.5,69.7
			c38.5,80.6,85.8,135.7,142,165.4c56.2,29.8,124.6,44.6,205.1,44.6c28.3,0,55.1-0.4,80.5-1.1c25.4-0.7,43.6-1.1,54.4-1.1v-326.5
			h-74c-23.2,0-44.1-4.5-62.6-13.6c-18.5-9.1-34.7-20.5-48.4-34.3c-13.8-14.5-24.1-29-31-43.5c-6.9-14.5-13.6-28.7-20.1-42.5
			c-16.7-39.2-29-67.1-37-83.8c-8-16.7-22.1-33-42.5-49l388.6-629.1L4279.9,2395.4L4279.9,2395.4L4279.9,2395.4z M5598,3185
			c-12,48.3-28.5,86.9-49.5,115.9c-22.5,30.5-47.9,51.7-76.2,63.7c-28.3,11.9-60.6,17.9-96.9,17.9c-34.1,0-65-5.3-92.5-15.8
			c-27.6-10.5-53-30.6-76.2-60.4c-21.8-28.3-39.2-67.1-52.3-116.5c-13-49.3-19.6-111.4-19.6-186.1c0-74.7,6.1-135.1,18.5-181.2
			c12.3-46.1,28.3-82.9,47.9-110.5c20.3-28.3,45.7-49,76.2-62c30.5-13.1,64.2-19.6,101.2-19.6c30.5,0,61.5,6.5,93.1,19.6
			c31.6,13.1,56.8,32.6,75.6,58.8c22.5,31.2,39.5,68.8,51.2,112.6c11.6,43.9,17.4,104.7,17.4,182.3
			C5616,3076.3,5610,3136.7,5598,3185L5598,3185L5598,3185z M5375.4,2357.3c-199.6,0-354.7,57.9-465.3,173.6
			c-110.6,115.7-166,274.1-166,475.1c0,203.2,55.3,362.3,166,477.3c110.6,115,265.8,172.5,465.3,172.5
			c200.3,0,355.5-57.9,465.8-173.6c110.3-115.8,165.4-274.5,165.4-476.2c0-201-55-359.3-164.9-475.1
			C5731.9,2415.1,5576.4,2357.3,5375.4,2357.3L5375.4,2357.3L5375.4,2357.3z M6961.8,2918.9h-394v-523.5h-380.9v1222.3h380.9v-423.4
			h394v423.4h380.9V2395.4h-380.9V2918.9z M8236.9,2395.4h-381v956.7h-378.8v265.6h1138.5v-265.6h-378.8V2395.4z M9423.7,2969
			c-64.6-6.6-116.8-12.2-156.7-16.9c-40-4.7-79.1-14-117.6-27.8c-33.3-11.6-59.3-29.2-77.8-52.8c-18.5-23.6-27.8-55-27.8-94.1
			c0-57.3,15.4-96.7,46.3-118.1c30.8-21.4,76.3-32.1,136.6-32.1c33.3,0,67.5,7.6,102.3,22.9c34.8,15.2,66.4,36.6,94.7,64.2V2969
			L9423.7,2969z M9423.7,2524.9c-26.1-21.8-49.5-41.3-70.1-58.8c-20.7-17.4-48.5-34.8-83.3-52.3c-34.2-16.7-67.3-29.4-99.6-38.1
			c-32.3-8.7-77.5-13.1-135.5-13.1c-108.2,0-198,36.3-269.4,108.8c-71.5,72.6-107.2,164-107.2,274.3c0,90.7,18.1,164,54.4,219.9
			c36.3,55.9,88.5,100.1,156.7,132.8c69,33.4,151.3,56.6,247.1,69.6c95.8,13.1,198.8,23.2,309.1,30.5v6.5
			c0,67.5-24.9,114.1-74.5,139.9c-49.8,25.7-124.3,38.6-223.7,38.6c-45,0-97.6-8.2-157.8-24.5c-60.2-16.3-119-37.2-176.3-62.6h-32.7
			v295c37.7,10.9,98.7,23.8,182.8,38.6c84.2,14.9,169.1,22.3,254.7,22.3c210.5,0,363.7-35,459.9-105
			c96.2-70,144.2-176.9,144.2-320.5v-831.5h-378.8L9423.7,2524.9L9423.7,2524.9z M10830.6,2395.4l-289.5,484.3h-98v-484.3h-380.9
			v1222.3h380.9v-490.9c53.7,0.7,93.8,8.5,120.3,23.4c26.5,14.9,55.3,54.2,86.5,118.1c10.1,21.8,21,45.7,32.7,71.8
			c11.5,26.1,22,49.4,31.6,69.7c38.3,80.6,85.7,135.7,142,165.4c56.2,29.8,124.6,44.6,205.1,44.6c28.3,0,55.1-0.4,80.5-1.1
			c25.4-0.7,43.6-1.1,54.5-1.1v-326.5h-74c-23.2,0-44.1-4.5-62.6-13.6s-34.7-20.5-48.4-34.3c-13.9-14.5-24.2-29-31.1-43.5
			c-6.9-14.5-13.6-28.7-20.1-42.5c-16.7-39.2-29-67.1-37-83.8c-8-16.7-22.2-33-42.5-49l388.6-629.1L10830.6,2395.4L10830.6,2395.4
			L10830.6,2395.4z M12053.4,2395.4h-381v956.7h-378.7v265.6h1138.4v-265.6h-378.7V2395.4z M13307.2,3347.7
			c-35.2,42.1-89.1,63.1-161.7,63.1c-73.9,0-131.8-22.1-173.5-66.4c-41.8-44.3-64.8-104.5-69.1-180.7h460.3
			C13361,3244.3,13342.3,3305.6,13307.2,3347.7L13307.2,3347.7L13307.2,3347.7z M12903.9,2934.1c3.6-56.6,15.6-103.9,36-142.1
			c20.3-38.1,47.1-68.4,80.5-90.9c32.7-22.5,70.7-38.6,114.3-48.4c43.5-9.8,91-14.7,142.5-14.7c44.3,0,87.8,4.9,130.7,14.7
			c42.8,9.8,81.9,22.7,117.5,38.6c31.2,13.8,60.1,28.6,86.5,44.6c26.5,15.9,48.1,30.1,64.8,42.4h40.3v-314.5
			c-31.2-12.4-59.7-23.8-85.5-34.3c-25.8-10.5-61.1-21.2-106.1-32.1c-41.3-10.9-84-19.4-127.8-25.6c-44-6.2-97.5-9.2-160.6-9.2
			c-230.8,0-407.6,55.1-530.6,165.4c-123,110.3-184.5,267.4-184.5,471.3c0,199.5,57.3,358.8,172,477.8
			c114.7,119,274.9,178.5,481.1,178.5c187.2,0,327.9-50.4,422.3-151.3c94.3-100.8,141.4-245.2,141.4-433.2v-137.1H12903.9
			L12903.9,2934.1"/>
	</g>
	<path d="M255.4,267.8c-15.6,0-31.2,0-45.8,0c-5.8,0-8.8,0-15.6,7.8c-11.7,12.7-22.4,24.4-39,26.3c0-8.8,0-17.5,0-25.3
		c0-4.9-1.9-8.8-9.7-8.8c-9.7,0-20.5,0-30.2,0c-42.9,0-91.6,86.7-113,128.6c-4.9,8.8-1,10.7,4.9,10.7c10.7,0,21.4,0,32.2,0
		c11.7,0,11.7-1.9,15.6-8.8c13.6-23.4,32.2-56.5,45.8-54.6c0,14.6,0,30.2,0,44.8c0,17.5-11.7,9.7-12.7,16.6c0,2.9,5.8,8.8,16.6,8.8
		c12.7,0,25.3,0,38,0c9.7,0,10.7-4.9,10.7-10.7c0-20.5,0-39,0-59.4c19.5,1.9,33.1,30.2,44.8,52.6c6.8,12.7,7.8,10.7,16.6,10.7
		c11.7,0,24.4,0,36.1,0c7.8,0,9.7-2.9,4.9-11.7c-11.7-18.5-24.4-38-36.1-56.5c-3.9-5.8-6.8-6.8,1-15.6
		c13.6-16.6,28.3-30.2,41.9-46.8C265.1,272.7,264.2,267.8,255.4,267.8z"/>
</g>
</svg>
